<svg id="Group_863" data-name="Group 863" xmlns="http://www.w3.org/2000/svg" width="60.726" height="56.863" viewBox="0 0 60.726 56.863">
  <g id="Group_352" data-name="Group 352" transform="translate(23.424 22.719)">
    <path id="Path_690" data-name="Path 690" d="M3538.8-4675.418h4.664v-11.929h-4.044v-3.246a15.414,15.414,0,0,0,5.435-2.008h3.864v17.183h3.958v4.251H3538.8Z" transform="translate(-3538.798 4692.601)" fill="#fac80b"/>
  </g>
  <rect id="Rectangle_119" data-name="Rectangle 119" width="7.25" height="11.738" rx="3.625" transform="translate(11.759)" fill="#fac80b"/>
  <rect id="Rectangle_120" data-name="Rectangle 120" width="7.25" height="11.738" rx="3.625" transform="translate(41.714)" fill="#fac80b"/>
  <g id="Group_353" data-name="Group 353" transform="translate(0 5.869)">
    <path id="Path_691" data-name="Path 691" d="M3567.606-4709.931a3.626,3.626,0,0,0,3.626-3.627v-2.238c-.024,0-.048,0-.07,0h-7.181v2.242A3.626,3.626,0,0,0,3567.606-4709.931Z" transform="translate(-3522.268 4715.8)" fill="#fac80b"/>
    <path id="Path_692" data-name="Path 692" d="M3558.418-4715.407v1.85a6.538,6.538,0,0,1-6.53,6.531,6.538,6.538,0,0,1-6.53-6.531v-2.242h-16.895v2.242a6.538,6.538,0,0,1-6.531,6.531,6.537,6.537,0,0,1-6.529-6.531v-1.85a11.825,11.825,0,0,0-8.855,11.438v27.334a11.831,11.831,0,0,0,11.831,11.83h37.064a11.831,11.831,0,0,0,11.83-11.83v-27.334A11.825,11.825,0,0,0,3558.418-4715.407Zm1.591,38.771a4.574,4.574,0,0,1-4.566,4.568h-37.064a4.574,4.574,0,0,1-4.567-4.568v-26.219h46.2Z" transform="translate(-3506.547 4715.8)" fill="#fac80b"/>
    <path id="Path_693" data-name="Path 693" d="M3526.363-4709.931a3.626,3.626,0,0,0,3.626-3.627v-2.242h-7.181c-.023,0-.047,0-.069,0v2.238A3.625,3.625,0,0,0,3526.363-4709.931Z" transform="translate(-3510.98 4715.8)" fill="#fac80b"/>
  </g>
</svg>
