<?xml version="1.0" encoding="utf-8"?>
<!-- Generator: Adobe Illustrator 27.4.0, SVG Export Plug-In . SVG Version: 6.00 Build 0)  -->
<svg version="1.1" id="Group_20" xmlns="http://www.w3.org/2000/svg" xmlns:xlink="http://www.w3.org/1999/xlink" x="0px" y="0px"
	 viewBox="0 0 13.9 19.3" style="enable-background:new 0 0 13.9 19.3;" xml:space="preserve">
<style type="text/css">
	.st0{clip-path:url(#SVGID_00000134219292344581888350000011297146524083197093_);}
	.st1{fill:#FAC80B;}
</style>
<g>
	<defs>
		<rect id="SVGID_1_" width="13.9" height="19.3"/>
	</defs>
	<clipPath id="SVGID_00000052812508979267473950000006641553043613889697_">
		<use xlink:href="#SVGID_1_"  style="overflow:visible;"/>
	</clipPath>
	<g id="Group_19" transform="translate(0 0)" style="clip-path:url(#SVGID_00000052812508979267473950000006641553043613889697_);">
		<path id="Path_705" class="st1" d="M7,0C3.1,0,0,3.1,0,7c0,0,0,0,0,0C0,7,0,7,0,7.1l0,0c0.1,6,7,12.2,7,12.2s6.9-6.2,7-12.2l0,0
			c0,0,0-0.1,0-0.1C13.9,3.1,10.8,0,7,0 M7,10.4c-1.9,0-3.4-1.5-3.4-3.4S5.1,3.6,7,3.6s3.4,1.5,3.4,3.4S8.8,10.4,7,10.4L7,10.4"/>
	</g>
</g>
</svg>
