<?xml version="1.0" encoding="utf-8"?>
<!-- Generator: Adobe Illustrator 27.4.0, SVG Export Plug-In . SVG Version: 6.00 Build 0)  -->
<svg version="1.1" id="Layer_1" xmlns="http://www.w3.org/2000/svg" xmlns:xlink="http://www.w3.org/1999/xlink" x="0px" y="0px"
	 viewBox="0 0 358.8 139.7" style="enable-background:new 0 0 358.8 139.7;" xml:space="preserve">
<style type="text/css">
	.st0{clip-path:url(#SVGID_00000049211673126386354930000000246920472002978714_);}
	.st1{fill:#FFFFFF;}
	.st2{clip-path:url(#SVGID_00000013878779826306476010000013908796369117244339_);}
	.st3{fill:#130C0E;}
	.st4{fill:#FAC80B;}
	.st5{clip-path:url(#SVGID_00000079465325597745836940000006688741872748356250_);}
	.st6{clip-path:url(#SVGID_00000134944352527206697080000001658144809861140379_);}
	.st7{fill:#130C0E;stroke:#FFFFFF;}
	.st8{fill:#FFCC06;}
</style>
<g id="Group_848" transform="translate(-78.674 -151.913)">
	<g>
		<defs>
			<rect id="SVGID_1_" x="37.1" y="152.4" width="400.3" height="139.2"/>
		</defs>
		<clipPath id="SVGID_00000174580747239338089300000006932724660716517272_">
			<use xlink:href="#SVGID_1_"  style="overflow:visible;"/>
		</clipPath>
		
			<g id="Group_836" transform="translate(78.674 152.413)" style="clip-path:url(#SVGID_00000174580747239338089300000006932724660716517272_);">
			<path id="Path_707" class="st1" d="M290.9,130.1c-7.5,0-13.5-5.6-13.5-12.6V96.3c0-6.9,6.1-12.6,13.5-12.6h35
				c0.8,0,1.4,0.6,1.4,1.4v32.3c0,6.9-6.1,12.6-13.5,12.6L290.9,130.1z"/>
			<path id="Path_708" class="st1" d="M116.1,91.2c0-0.7,0.1-1.5,0.4-2.2c0.2-0.6,0.5-1.1,0.9-1.5c0.4-0.4,0.8-0.7,1.3-0.9
				c0.5-0.2,1-0.4,1.5-0.4c0.4-0.1,0.9-0.2,1.4-0.2s1.2-0.1,2-0.2c0.8-0.1,1.8-0.1,3-0.1s2.6-0.1,4.2-0.1c3.1-0.1,6.1,0.2,9.1,0.9
				c2,0.4,4,1.2,5.7,2.4c1.3,0.9,2.3,2.1,3,3.6c0.6,1.4,0.9,2.9,0.9,4.5c0,1.1-0.1,2.1-0.4,3.2c-0.3,0.9-0.6,1.7-1.1,2.4
				c-0.4,0.7-0.9,1.3-1.5,1.8c-0.5,0.5-1.1,0.9-1.7,1.2c0.7,0.3,1.4,0.6,2,1c0.7,0.5,1.4,1.1,2,1.8c0.6,0.8,1.1,1.7,1.5,2.6
				c0.4,1.1,0.6,2.3,0.6,3.5c0,1.6-0.3,3.3-0.8,4.8c-0.6,1.5-1.7,2.8-3,3.7c-1.8,1.2-3.9,2-6,2.4c-3.2,0.6-6.5,0.9-9.8,0.8
				c-2,0-3.8,0-5.6-0.1c-1.7-0.1-3.3-0.1-4.6-0.2c-1.3-0.1-2.4-0.1-3.3-0.2c-0.8-0.1-1.3-0.1-1.4-0.1L116.1,91.2z M134.4,101.6
				c0.8,0,1.7-0.1,2.5-0.3c0.6-0.2,1.1-0.5,1.6-0.9c0.4-0.3,0.7-0.7,0.8-1.2c0.2-0.4,0.2-0.9,0.2-1.4c0-0.5-0.1-1-0.3-1.5
				c-0.2-0.5-0.6-1-1.1-1.3c-0.7-0.4-1.5-0.8-2.3-0.9c-1.2-0.3-2.5-0.4-3.8-0.3c-1.6,0-3,0-4.2,0.1c-1.2,0.1-1.9,0.2-2.1,0.2v7.5
				L134.4,101.6z M125.8,117.5c0.2,0,0.9,0.1,2,0.2c1.1,0.1,2.8,0.1,5.1,0.1c1.3,0,2.5-0.1,3.8-0.3c0.8-0.1,1.6-0.4,2.4-0.8
				c0.5-0.3,1-0.7,1.2-1.3c0.2-0.5,0.4-1.1,0.4-1.7c0-0.5-0.1-1-0.2-1.4c-0.2-0.5-0.5-0.9-0.9-1.2c-0.5-0.4-1.1-0.7-1.7-0.9
				c-0.9-0.2-1.8-0.3-2.7-0.3h-9.4V117.5z"/>
			<path id="Path_709" class="st1" d="M169.2,114.8c0.1,0.5,0.3,1,0.6,1.4c0.4,0.5,0.9,0.9,1.4,1.2c0.7,0.4,1.5,0.7,2.3,0.9
				c1.1,0.2,2.3,0.4,3.4,0.3c1,0,1.9-0.1,2.9-0.3c0.9-0.2,1.7-0.4,2.4-0.5c0.6-0.2,1.1-0.3,1.7-0.6c0.3-0.1,0.5-0.2,0.8-0.4l3.3,6.4
				c-0.3,0.2-0.8,0.5-1.6,0.8c-0.9,0.4-1.8,0.8-2.8,1c-2.8,0.9-5.8,1.3-8.8,1.3c-2.1,0-4.2-0.3-6.2-1c-1.9-0.7-3.6-1.7-5.1-3
				c-1.5-1.4-2.6-3-3.4-4.9c-0.9-2.1-1.3-4.3-1.2-6.6c0-2.2,0.4-4.3,1.2-6.3c0.8-1.9,2-3.5,3.4-4.9c1.5-1.4,3.3-2.4,5.2-3.1
				c2-0.8,4.2-1.1,6.4-1.1c1.9,0,3.9,0.3,5.8,0.8c1.6,0.5,3,1.3,4.3,2.3c1.1,0.9,2,2,2.7,3.3c0.6,1.2,0.9,2.5,0.9,3.8
				c0,1.3-0.2,2.6-0.8,3.8c-0.6,1.2-1.6,2.2-2.8,2.9c-1.7,0.9-3.5,1.5-5.4,1.8c-2.9,0.5-5.8,0.7-8.7,0.6L169.2,114.8z M168.7,108.8
				c2.1,0,4.1-0.1,6.2-0.3c1.1-0.1,2.2-0.4,3.3-0.7c0.5-0.2,1-0.5,1.3-1c0.2-0.4,0.2-0.8,0.2-1.2c0-0.8-0.4-1.6-1.1-2.1
				c-1-0.7-2.2-1-3.4-0.9c-1,0-1.9,0.2-2.8,0.5c-0.7,0.3-1.4,0.8-2,1.4c-0.5,0.6-0.9,1.3-1.2,2C168.9,107.2,168.7,108,168.7,108.8"
				/>
			<path id="Path_710" class="st1" d="M206.9,114.8c0.1,0.5,0.3,1,0.6,1.4c0.4,0.5,0.9,0.9,1.4,1.2c0.7,0.4,1.5,0.7,2.3,0.9
				c1.1,0.2,2.3,0.4,3.4,0.3c1,0,1.9-0.1,2.9-0.3c0.9-0.2,1.7-0.4,2.4-0.5c0.6-0.2,1.1-0.3,1.7-0.6c0.3-0.1,0.5-0.2,0.8-0.4l3.3,6.4
				c-0.3,0.2-0.8,0.5-1.6,0.8c-0.9,0.4-1.8,0.8-2.8,1c-2.8,0.9-5.8,1.3-8.8,1.3c-2.1,0-4.2-0.3-6.2-1c-1.9-0.7-3.6-1.7-5.1-3
				c-1.5-1.4-2.6-3-3.4-4.9c-0.9-2.1-1.3-4.3-1.2-6.6c0-2.2,0.4-4.3,1.2-6.3c0.8-1.9,2-3.5,3.4-4.9c1.5-1.4,3.3-2.4,5.2-3.1
				c2-0.8,4.2-1.1,6.4-1.1c1.9,0,3.9,0.3,5.8,0.8c1.6,0.5,3,1.3,4.3,2.3c1.1,0.9,2,2,2.7,3.3c0.6,1.2,0.9,2.5,0.9,3.8
				c0,1.3-0.2,2.6-0.8,3.8c-0.6,1.2-1.6,2.2-2.8,2.9c-1.7,0.9-3.5,1.5-5.4,1.8c-2.9,0.5-5.8,0.7-8.7,0.6L206.9,114.8z M206.4,108.8
				c2.1,0,4.1-0.1,6.2-0.3c1.1-0.1,2.2-0.4,3.3-0.7c0.5-0.2,1-0.5,1.3-1c0.2-0.4,0.2-0.8,0.2-1.2c0-0.8-0.4-1.6-1.1-2.1
				c-1-0.7-2.2-1-3.4-0.9c-1,0-1.9,0.2-2.8,0.5c-0.7,0.3-1.4,0.8-2,1.4c-0.5,0.6-0.9,1.3-1.2,2C206.6,107.2,206.4,108,206.4,108.8"
				/>
			<path id="Path_711" class="st1" d="M50,10.1C27.5,10.7,9.9,28.5,9.9,49.7v61.8L23,91.4c1.3-2.1,3.6-3.3,6.1-3.3h21.4
				c22.5,0,41.4-16.7,42-37.9C93.2,27.8,73.8,9.4,50,10.1"/>
		</g>
	</g>
	<g id="Group_839" transform="translate(144.071 175.035)">
		<g>
			<defs>
				<path id="SVGID_00000062185015240865663010000007470233115716864162_" d="M-14.2,0c-3.4,0-6.7,0.6-9.9,1.7
					C-33.7,5-41.6,15.9-41.6,25.8v22.6c0,2.7,2.2,4.8,4.9,4.8c0,0,0,0,0,0h23.3c11,0.1,21-6.7,24.9-17C18.3,17.5,4.2,0-14.2,0
					L-14.2,0z"/>
			</defs>
			<clipPath id="SVGID_00000158025621739458735200000004076870223417660345_">
				<use xlink:href="#SVGID_00000062185015240865663010000007470233115716864162_"  style="overflow:visible;"/>
			</clipPath>
			<g id="Group_838" style="clip-path:url(#SVGID_00000158025621739458735200000004076870223417660345_);">
				<path id="Path_712" class="st3" d="M11.5,36.2c-3.9,10.3-13.8,17.1-24.9,17h-23.3c-2.7,0-4.9-2.1-4.9-4.8c0,0,0,0,0,0V25.8
					c0-9.9,7.9-20.9,17.5-24.2C-1.4-6,19.5,14.2,11.5,36.2"/>
				<path id="Path_713" class="st4" d="M-52.4,72c-4.6-0.1-8.2-4-8.1-8.6s4-8.2,8.6-8.1c4.5,0.1,8.1,3.8,8.1,8.3
					C-44,68.3-47.8,72.1-52.4,72 M-52.4,62.2c-0.8,0-1.5,0.7-1.4,1.5c0,0.8,0.7,1.5,1.5,1.4c0.8,0,1.4-0.7,1.4-1.5
					C-50.9,62.9-51.6,62.2-52.4,62.2"/>
				<path id="Path_714" class="st4" d="M-52.4,86.9c-13.2,0-23.9-10.4-23.9-23.2s10.7-23.2,23.9-23.2s23.9,10.4,23.9,23.2
					S-39.3,86.9-52.4,86.9 M-52.4,47.3c-9,0.3-16.1,7.8-15.9,16.8c0.3,9,7.8,16.1,16.8,15.9c8.8-0.3,15.9-7.5,15.9-16.3
					C-35.8,54.5-43.3,47.2-52.4,47.3"/>
				<path id="Path_715" class="st4" d="M-52.4,101.7c-21.6,0-39.2-17.1-39.2-38s17.6-38,39.2-38s39.2,17.1,39.2,38
					S-30.8,101.7-52.4,101.7 M-52.4,32.5c-17.7,0-32.2,14-32.2,31.2s14.4,31.2,32.2,31.2s32.2-14,32.2-31.2S-34.7,32.5-52.4,32.5"/>
				<path id="Path_716" class="st4" d="M-52.4,116.6c-14.4,0.1-28.2-5.5-38.6-15.5c-20.7-19.8-21.4-52.6-1.6-73.3
					c0.5-0.5,1-1.1,1.6-1.6c10.3-10,24.2-15.6,38.6-15.5c14.4-0.1,28.2,5.5,38.6,15.5C6.8,46.1,7.5,78.9-12.3,99.5
					c-0.5,0.5-1,1.1-1.6,1.6C-24.2,111.1-38.1,116.7-52.4,116.6 M-52.4,17.6c-26.2,0-47.5,20.7-47.5,46.1s21.3,46.1,47.5,46.1
					S-5,89.1-5,63.7S-26.3,17.6-52.4,17.6"/>
			</g>
		</g>
	</g>
	<g>
		<defs>
			<rect id="SVGID_00000166633633493418012530000000445475634188107177_" x="37.1" y="152.4" width="400.3" height="139.2"/>
		</defs>
		<clipPath id="SVGID_00000153670491181393200800000016479587849129584774_">
			<use xlink:href="#SVGID_00000166633633493418012530000000445475634188107177_"  style="overflow:visible;"/>
		</clipPath>
		
			<g id="Group_840" transform="translate(78.674 152.413)" style="clip-path:url(#SVGID_00000153670491181393200800000016479587849129584774_);">
			<path id="Path_718" class="st3" d="M8.3,128.2c-0.8,0-1.6-0.1-2.3-0.4c-2.4-1-4-3.3-4-5.9V50.1C2,23.4,24.1,1.3,51.5,1.4
				c26.9,0.1,48.8,21.4,49,47.5C100.6,75.6,77.8,97,50.4,97H34.2c-2.2,0-4.3,1.1-5.4,3l-15.1,25.1C12.5,127.1,10.5,128.2,8.3,128.2
				 M50.2,13.6c-19.7,0.5-35.5,16.5-35.6,36.2v49.8l7-11.7c1.2-1.9,3.2-3,5.4-3h23.6c20,0,36.7-15.2,37.3-34.6
				C88.5,29.8,71.2,13.1,50.2,13.6"/>
			<path id="Path_719" class="st1" d="M49.2,35.4c0-1.5,0.6-3,1.7-4.1c1.1-1.1,2.6-1.7,4.2-1.7c1.6,0,3.1,0.6,4.2,1.7
				c1.1,1.1,1.7,2.5,1.7,4.1c0,1.5-0.6,3-1.7,4.1c-1.1,1.1-2.6,1.7-4.2,1.6c-1.6,0-3.1-0.5-4.2-1.6C49.8,38.4,49.2,36.9,49.2,35.4"
				/>
			<path id="Path_720" class="st1" d="M50,10.1C27.5,10.7,9.9,28.5,9.9,49.7v61.8L23,91.4c1.3-2.1,3.6-3.3,6.1-3.3h21.4
				c22.5,0,41.4-16.7,42-37.9C93.2,27.8,73.8,9.4,50,10.1"/>
		</g>
	</g>
	<g>
		<defs>
			<path id="SVGID_00000049215084825169210450000011986769797953584039_" d="M129.9,175c-3.4,0-6.7,0.6-9.9,1.7
				c-9.7,3.3-17.5,14.2-17.5,24.2v22.6c0,2.7,2.2,4.8,4.9,4.8c0,0,0,0,0,0h23.3c11,0.1,21-6.7,24.9-17
				C162.4,192.5,148.3,175,129.9,175L129.9,175z"/>
		</defs>
		<clipPath id="SVGID_00000124849370696058557660000015200672820560258459_">
			<use xlink:href="#SVGID_00000049215084825169210450000011986769797953584039_"  style="overflow:visible;"/>
		</clipPath>
		
			<g id="Group_842" transform="translate(144.071 175.035)" style="clip-path:url(#SVGID_00000124849370696058557660000015200672820560258459_);">
			<path id="Path_721" class="st3" d="M11.5,36.2c-3.9,10.3-13.8,17.1-24.9,17h-23.3c-2.7,0-4.9-2.1-4.9-4.8c0,0,0,0,0,0V25.8
				c0-9.9,7.9-20.9,17.5-24.2C-1.4-6,19.5,14.2,11.5,36.2"/>
			<path id="Path_722" class="st4" d="M-52.4,72c-4.6-0.1-8.2-4-8.1-8.6s4-8.2,8.6-8.1c4.5,0.1,8.1,3.8,8.1,8.3
				C-44,68.3-47.8,72.1-52.4,72 M-52.4,62.2c-0.8,0-1.5,0.7-1.4,1.5c0,0.8,0.7,1.5,1.5,1.4c0.8,0,1.4-0.7,1.4-1.5
				C-50.9,62.9-51.6,62.2-52.4,62.2"/>
			<path id="Path_723" class="st4" d="M-52.4,86.9c-13.2,0-23.9-10.4-23.9-23.2s10.7-23.2,23.9-23.2s23.9,10.4,23.9,23.2
				S-39.3,86.9-52.4,86.9 M-52.4,47.3c-9,0.3-16.1,7.8-15.9,16.8c0.3,9,7.8,16.1,16.8,15.9c8.8-0.3,15.9-7.5,15.9-16.3
				C-35.8,54.5-43.3,47.2-52.4,47.3"/>
			<path id="Path_724" class="st4" d="M-52.4,101.7c-21.6,0-39.2-17.1-39.2-38s17.6-38,39.2-38s39.2,17.1,39.2,38
				S-30.8,101.7-52.4,101.7 M-52.4,32.5c-17.7,0-32.2,14-32.2,31.2s14.4,31.2,32.2,31.2s32.2-14,32.2-31.2S-34.7,32.5-52.4,32.5"/>
			<path id="Path_725" class="st4" d="M-52.4,116.6c-14.4,0.1-28.2-5.5-38.6-15.5c-20.7-19.8-21.4-52.6-1.6-73.3
				c0.5-0.5,1-1.1,1.6-1.6c10.3-10,24.2-15.6,38.6-15.5c14.4-0.1,28.2,5.5,38.6,15.5C6.8,46.1,7.5,78.9-12.3,99.5
				c-0.5,0.5-1,1.1-1.6,1.6C-24.2,111.1-38.1,116.7-52.4,116.6 M-52.4,17.6c-26.2,0-47.5,20.7-47.5,46.1s21.3,46.1,47.5,46.1
				S-5,89.1-5,63.7S-26.3,17.6-52.4,17.6"/>
		</g>
	</g>
	<path id="Path_727" class="st7" d="M87,282c-1,0-1.9-0.2-2.8-0.5c-3-1.2-4.9-4.1-4.9-7.2v-71.8c0-27.6,22.7-50.1,50.7-50.1h0.3
		c27.6,0.1,50.2,22.1,50.4,48.9c0,12.8-5.1,25.1-14.2,34.1c-9.9,9.9-23.4,15.4-37.4,15.4h-16.1c-1.7,0-3.3,0.9-4.2,2.3l-15.1,25.1
		C92.2,280.6,89.7,282.1,87,282 M129.9,167.5c-0.3,0-0.7,0-1,0c-18.9,0.5-34.2,16.1-34.2,34.8v44.6l4.4-7.3c1.4-2.3,3.9-3.7,6.7-3.7
		h23.6c19.2,0,35.3-14.9,35.8-33.2c0.3-9.1-3.2-17.9-9.6-24.4C148.8,171.3,139.6,167.4,129.9,167.5"/>
	<path id="Path_728" class="st1" d="M127.9,187.8c0-1.5,0.6-3,1.7-4.1c1.1-1.1,2.6-1.7,4.2-1.7c1.6,0,3.1,0.6,4.2,1.7
		c1.1,1.1,1.7,2.5,1.7,4.1c0,1.5-0.6,3-1.7,4.1c-1.1,1.1-2.6,1.7-4.2,1.6c-1.6,0-3.1-0.5-4.2-1.6
		C128.5,190.8,127.8,189.3,127.9,187.8"/>
	<path id="Path_729" class="st1" d="M315.9,268.2c0.5,0.3,1,0.6,1.6,0.9c0.8,0.4,1.7,0.7,2.6,1c1.1,0.3,2.3,0.6,3.4,0.8
		c1.3,0.2,2.7,0.3,4.1,0.3c1.2,0.1,2.5-0.1,3.7-0.5c0.7-0.2,1.3-0.9,1.2-1.6c0.1-0.7-0.4-1.4-1-1.7c-1-0.4-2.1-0.7-3.2-0.8l-3.1-0.4
		c-1.5-0.2-3-0.5-4.4-0.9c-1.3-0.4-2.6-0.9-3.8-1.7c-1.1-0.8-2-1.8-2.6-2.9c-0.7-1.4-1-3-0.9-4.5c0-1.4,0.3-2.9,0.8-4.2
		c0.6-1.3,1.4-2.5,2.5-3.4c1.3-1,2.8-1.8,4.4-2.3c2.1-0.6,4.2-0.9,6.3-0.8c2.2,0,4.3,0.1,6.4,0.5c1.6,0.3,3.2,0.8,4.7,1.5
		c0.7,0.4,1.3,0.9,1.8,1.5c0.5,0.6,0.7,1.4,0.7,2.2c0,0.6-0.1,1.2-0.4,1.8c-0.2,0.5-0.5,0.9-0.9,1.3c-0.3,0.3-0.6,0.6-0.9,0.9
		c-0.2,0.1-0.4,0.3-0.6,0.4c-0.3-0.3-0.6-0.5-1-0.7c-0.7-0.4-1.4-0.7-2.1-1c-1-0.3-2.1-0.6-3.2-0.8c-1.4-0.3-2.8-0.4-4.2-0.4
		c-1.3-0.1-2.5,0.1-3.7,0.6c-0.6,0.3-1,1-1,1.7c0,0.6,0.3,1.2,0.9,1.5c0.9,0.4,1.9,0.6,2.8,0.7l5.4,0.8c1.3,0.2,2.6,0.5,3.9,0.9
		c1.2,0.4,2.3,0.9,3.3,1.7c1,0.8,1.8,1.7,2.3,2.8c0.6,1.3,0.9,2.8,0.9,4.2c0.1,3.2-1.3,6.2-3.8,8.1c-2.5,1.9-6,2.9-10.5,2.9
		c-3.7,0-7.3-0.5-10.9-1.6c-1.1-0.3-2.2-0.8-3.2-1.4c-0.6-0.3-1.1-0.7-1.7-1.1L315.9,268.2z"/>
	<path id="Path_730" class="st8" d="M369.6,279c-5.4,0-9.8-4.1-9.8-9.1v-21.2c0-5,4.4-9.1,9.8-9.1h32.8v30.3c0,5-4.4,9.1-9.8,9.1
		L369.6,279z"/>
	<path id="Path_732" class="st3" d="M382.4,268c-1.8,0-2.7-0.5-3-1.9c-0.1-0.6-0.3-1.2-0.5-1.9h-6.1c-0.4,1.3-0.7,2.6-0.9,3.9h-2
		c-1.6,0-2.3-0.8-2.3-2c0-2.4,3.4-11.4,6.4-14.3h1.9c1.4-0.1,2.7,0.6,3.4,1.7c2.6,4.5,4.3,9.5,5.2,14.6L382.4,268z M375.9,255.8
		c-0.8,1.6-1.5,3.2-2.1,4.9h4.1C377.4,259,376.7,257.3,375.9,255.8"/>
	<path id="Path_733" class="st3" d="M389,254.3c-1.2-0.2-2.1-1.3-1.9-2.5c0.2-1.2,1.3-2.1,2.5-1.9c1.1,0.1,2,1.1,1.9,2.2
		C391.4,253.4,390.3,254.4,389,254.3 M391.3,268.2c-2.6,0-4.6-1.2-4.6-4.3v-8.5h1.2c2.8,0,3.7,0.7,3.7,3.1v4.8c0,1.2,0.6,1.5,2,1.5
		h0.6v1.3C394.1,267.7,392.8,268.2,391.3,268.2"/>
	<path id="Path_734" class="st3" d="M194.8,185c0-0.7,0.1-1.5,0.4-2.2c0.2-0.6,0.5-1.1,0.9-1.5c0.4-0.4,0.8-0.7,1.3-0.9
		c0.5-0.2,1-0.4,1.5-0.4c0.4-0.1,0.9-0.2,1.4-0.2c0.5-0.1,1.2-0.1,2-0.2s1.8-0.1,2.9-0.1s2.6-0.1,4.2-0.1c3-0.1,6,0.3,8.8,1.2
		c2.1,0.6,4,1.7,5.7,3.1c1.4,1.2,2.4,2.7,3.1,4.4c1.2,3.5,1.2,7.2-0.1,10.7c-0.7,1.7-1.7,3.2-3.1,4.3c-1.6,1.3-3.5,2.3-5.5,2.8
		c-2.6,0.7-5.2,1.1-7.9,1c-0.7,0-1.4,0-2.1-0.1c-0.7,0-1.3-0.1-1.8-0.1c-0.5,0-1-0.1-1.4-0.1c-0.2,0-0.5-0.1-0.7-0.1v12.8h-9.6
		L194.8,185z M204.4,198.4c0.3,0,0.8,0.1,1.4,0.2c1.1,0.1,2.3,0.2,3.4,0.1c1.5,0,3-0.1,4.4-0.5c1-0.2,1.8-0.7,2.6-1.3
		c0.6-0.5,1-1.1,1.3-1.8c0.2-0.6,0.3-1.3,0.3-2c0-0.6-0.1-1.3-0.3-1.9c-0.2-0.7-0.6-1.3-1.1-1.8c-0.7-0.6-1.6-1.1-2.6-1.4
		c-1.5-0.4-3-0.6-4.5-0.5c-1.4,0-2.5,0-3.4,0.1c-0.9,0.1-1.4,0.1-1.6,0.1L204.4,198.4z"/>
	<path id="Path_735" class="st3" d="M264,219c-0.5,0.1-1.1,0.2-1.6,0.3c-0.8,0.1-1.9,0.2-3.1,0.3c-1.2,0.1-2.7,0.2-4.2,0.3
		c-1.6,0.1-3.3,0.1-5,0.1c-2.5,0.1-5-0.2-7.4-0.8c-1.7-0.4-3.3-1.1-4.7-2.1c-1.1-0.8-2-1.8-2.5-3.1c-0.5-1.2-0.7-2.4-0.7-3.7
		c0-3.5,1.2-6,3.5-7.5c2.3-1.5,6-2.3,11-2.3c1.3,0,2.3,0,3.2,0.1c0.8,0,1.5,0.1,2.1,0.2c0-1.3-0.6-2.5-1.7-3.1
		c-1.1-0.8-3-1.1-5.6-1.1c-1.1,0-2.1,0.1-3.2,0.2c-0.8,0.1-1.6,0.3-2.4,0.5c-0.5,0.1-1.1,0.3-1.6,0.6c-0.3,0.1-0.6,0.3-0.8,0.5
		c-0.1-0.1-0.2-0.2-0.5-0.5c-0.3-0.3-0.5-0.6-0.7-0.9c-0.3-0.4-0.5-0.8-0.6-1.2c-0.2-0.5-0.3-1-0.3-1.5c0-3.3,3.5-5,10.5-5
		c2.2,0,4.3,0.2,6.4,0.6c1.9,0.3,3.6,1,5.2,2.1c1.5,1,2.7,2.3,3.5,3.9c0.9,1.9,1.3,3.9,1.3,6L264,219z M254.5,207.1
		c-0.5-0.1-1-0.2-1.6-0.2c-0.7-0.1-1.7-0.1-3.1-0.1c-1,0-1.9,0.1-2.9,0.3c-0.6,0.1-1.2,0.4-1.7,0.8c-0.4,0.3-0.7,0.7-0.9,1.1
		c-0.2,0.4-0.2,0.9-0.2,1.3c0,0.4,0.1,0.7,0.2,1.1c0.1,0.4,0.4,0.8,0.8,1c0.5,0.4,1.1,0.6,1.8,0.8c1,0.2,2.1,0.3,3.1,0.3
		c1,0,2,0,2.8-0.1c0.6,0,1.1-0.1,1.7-0.2L254.5,207.1z"/>
	<path id="Path_736" class="st3" d="M274.9,200.9c0-1.7,0.3-3.4,1-5c0.6-1.4,1.5-2.7,2.7-3.7c1.2-1,2.6-1.8,4.1-2.3
		c1.7-0.5,3.5-0.8,5.3-0.8c1.9-0.1,3.7,0.2,5.5,0.7c1,0.3,2,0.9,2.9,1.6c0.3,0.4,0.6,0.8,0.8,1.2c0.2,0.5,0.3,1,0.3,1.5
		c0,0.5-0.1,1.1-0.3,1.6c-0.2,0.5-0.4,0.9-0.6,1.3c-0.2,0.3-0.5,0.7-0.7,1c-0.2,0.3-0.4,0.5-0.5,0.6c-0.8-0.3-1.6-0.6-2.4-0.9
		c-1-0.3-2.1-0.4-3.1-0.4c-1.4,0-2.7,0.4-3.8,1.3c-1,0.8-1.6,2.2-1.6,4.2v16.3h-9.5L274.9,200.9z"/>
	<path id="Path_737" class="st3" d="M305.1,181.1c-0.1-1.2,0.4-2.4,1.4-3.1c1.1-0.7,2.3-1,3.6-0.9c1,0,1.9,0.1,2.9,0.4
		c0.9,0.2,1.4,0.4,1.7,0.5v21.8c0.7-0.6,1.5-1.2,2.3-1.8c0.8-0.6,1.6-1.3,2.4-1.9c0.8-0.6,1.5-1.2,2.2-1.8c0.7-0.6,1.2-1,1.7-1.4
		c0.6-0.5,1.1-0.9,1.6-1.3c0.4-0.4,0.9-0.7,1.4-0.9c0.5-0.2,1-0.4,1.6-0.5c0.7-0.1,1.3-0.2,2-0.2c0.7,0,1.5,0.1,2.2,0.3
		c0.6,0.2,1.2,0.5,1.8,0.8c0.5,0.3,0.9,0.6,1.3,1c0.3,0.3,0.5,0.6,0.8,0.9c-0.7,0.8-1.7,1.6-2.8,2.6c-1.1,0.9-2.3,1.9-3.5,2.8
		c-1.2,0.9-2.4,1.8-3.5,2.7c-1.1,0.9-2,1.6-2.7,2.1c2.6,2.3,5.1,4.8,7.4,7.4c2.4,2.7,4.7,5.5,6.7,8.4h-11.7c-0.8-1-1.7-2.1-2.6-3.2
		c-0.9-1.1-1.9-2.1-2.9-3.1c-1-1-1.9-1.9-2.9-2.8c-0.9-0.9-1.8-1.7-2.6-2.5v11.6h-9.5V181.1z"/>
	<path id="Path_738" class="st3" d="M345.3,181.7c0-1.2,0.5-2.4,1.4-3.3c0.9-0.9,2.1-1.4,3.4-1.3c1.3,0,2.5,0.5,3.4,1.3
		c0.9,0.9,1.4,2.1,1.4,3.3c0,1.2-0.5,2.4-1.4,3.3c-0.9,0.9-2.1,1.3-3.4,1.3c-1.3,0-2.5-0.4-3.4-1.3
		C345.7,184.1,345.2,182.9,345.3,181.7"/>
	<path id="Path_739" class="st3" d="M345.3,194.1c-0.1-1.2,0.4-2.4,1.4-3.1c1.1-0.7,2.3-1,3.6-0.9c1,0,1.9,0.1,2.9,0.4
		c0.9,0.2,1.4,0.4,1.7,0.5v28.3h-9.5L345.3,194.1z"/>
	<path id="Path_740" class="st3" d="M365.1,201.5c0-1.8,0.4-3.6,1.2-5.3c0.8-1.5,1.9-2.8,3.2-3.9c1.4-1.1,3.1-1.9,4.8-2.3
		c3.8-1.1,7.8-1.1,11.6,0c1.7,0.5,3.3,1.3,4.8,2.3c1.4,1,2.5,2.3,3.2,3.9c0.8,1.6,1.2,3.5,1.2,5.3v17.7h-9.5v-15.6
		c0.1-1.6-0.4-3.2-1.4-4.5c-1.1-1-2.6-1.6-4.1-1.5c-3.7,0-5.5,2-5.5,5.9v15.6h-9.5L365.1,201.5z"/>
	<path id="Path_741" class="st3" d="M410,222c0.3,0.2,0.6,0.3,0.9,0.4c0.5,0.2,1.2,0.4,2,0.6s1.7,0.4,2.8,0.6
		c1.2,0.2,2.3,0.3,3.5,0.3c1.2,0,2.4-0.1,3.5-0.4c1-0.2,2-0.7,2.8-1.3c0.8-0.6,1.4-1.5,1.8-2.4c0.5-1.2,0.7-2.4,0.6-3.6v-0.6
		c-0.3,0.3-0.6,0.6-1,0.8c-0.6,0.4-1.1,0.7-1.8,1c-0.8,0.4-1.7,0.7-2.6,0.9c-1.1,0.3-2.2,0.4-3.3,0.4c-2,0-4-0.3-5.9-0.9
		c-1.7-0.6-3.3-1.5-4.6-2.8c-1.3-1.3-2.3-2.8-3-4.5c-0.7-1.9-1.1-4-1.1-6c0-2.1,0.4-4.2,1.2-6.1c0.8-1.8,2-3.4,3.4-4.8
		c1.5-1.4,3.3-2.4,5.2-3.1c2.1-0.8,4.4-1.1,6.7-1.1c2.6,0,5.1,0.5,7.5,1.5c2.2,0.9,4.2,2.4,5.7,4.3c1,1.3,1.7,2.7,2.1,4.3
		c0.5,2,0.8,4.1,0.7,6.2v8.5c0.1,2.6-0.4,5.2-1.3,7.7c-0.8,2-2,3.8-3.6,5.3c-1.6,1.4-3.4,2.5-5.5,3.1c-2.2,0.7-4.5,1-6.9,1
		c-1.6,0-3.2-0.1-4.8-0.3c-1.3-0.2-2.6-0.4-3.9-0.7c-0.9-0.2-1.9-0.5-2.8-0.9c-0.5-0.2-1-0.4-1.4-0.7L410,222z M414.5,204.4
		c-0.1,1.8,0.6,3.6,1.9,4.9c1.4,1.1,3.1,1.7,4.8,1.6c1.8,0.1,3.5-0.6,4.8-1.8c1.3-1.2,2-2.9,1.9-4.7c0.1-1.8-0.6-3.5-1.9-4.8
		c-1.3-1.2-3-1.9-4.8-1.9c-0.9,0-1.9,0.2-2.7,0.5c-0.8,0.3-1.5,0.8-2.1,1.4c-0.6,0.6-1.1,1.3-1.4,2.1
		C414.7,202.6,414.5,203.5,414.5,204.4"/>
	<path id="Path_742" class="st4" d="M194.8,185c0-0.7,0.1-1.5,0.4-2.2c0.2-0.6,0.5-1.1,0.9-1.5c0.4-0.4,0.8-0.7,1.3-0.9
		c0.5-0.2,1-0.4,1.5-0.4c0.4-0.1,0.9-0.2,1.4-0.2c0.5-0.1,1.2-0.1,2-0.2s1.8-0.1,2.9-0.1s2.6-0.1,4.2-0.1c3-0.1,6,0.3,8.8,1.2
		c2.1,0.6,4,1.7,5.7,3.1c1.4,1.2,2.4,2.7,3.1,4.4c1.2,3.5,1.2,7.2-0.1,10.7c-0.7,1.7-1.7,3.2-3.1,4.3c-1.6,1.3-3.5,2.3-5.5,2.8
		c-2.6,0.7-5.2,1.1-7.9,1c-0.7,0-1.4,0-2.1-0.1c-0.7,0-1.3-0.1-1.8-0.1c-0.5,0-1-0.1-1.4-0.1c-0.2,0-0.5-0.1-0.7-0.1v12.8h-9.6
		L194.8,185z M204.4,198.4c0.3,0,0.8,0.1,1.4,0.2c1.1,0.1,2.3,0.2,3.4,0.1c1.5,0,3-0.1,4.4-0.5c1-0.2,1.8-0.7,2.6-1.3
		c0.6-0.5,1-1.1,1.3-1.8c0.2-0.6,0.3-1.3,0.3-2c0-0.6-0.1-1.3-0.3-1.9c-0.2-0.7-0.6-1.3-1.1-1.8c-0.7-0.6-1.6-1.1-2.6-1.4
		c-1.5-0.4-3-0.6-4.5-0.5c-1.4,0-2.5,0-3.4,0.1c-0.9,0.1-1.4,0.1-1.6,0.1L204.4,198.4z"/>
	<path id="Path_743" class="st4" d="M264,219c-0.5,0.1-1.1,0.2-1.6,0.3c-0.8,0.1-1.9,0.2-3.1,0.3c-1.2,0.1-2.7,0.2-4.2,0.3
		c-1.6,0.1-3.3,0.1-5,0.1c-2.5,0.1-5-0.2-7.4-0.8c-1.7-0.4-3.3-1.1-4.7-2.1c-1.1-0.8-2-1.8-2.5-3.1c-0.5-1.2-0.7-2.4-0.7-3.7
		c0-3.5,1.2-6,3.5-7.5c2.3-1.5,6-2.3,11-2.3c1.3,0,2.3,0,3.2,0.1c0.8,0,1.5,0.1,2.1,0.2c0-1.3-0.6-2.5-1.7-3.1
		c-1.1-0.8-3-1.1-5.6-1.1c-1.1,0-2.1,0.1-3.2,0.2c-0.8,0.1-1.6,0.3-2.4,0.5c-0.5,0.1-1.1,0.3-1.6,0.6c-0.3,0.1-0.6,0.3-0.8,0.5
		c-0.1-0.1-0.2-0.2-0.5-0.5c-0.3-0.3-0.5-0.6-0.7-0.9c-0.3-0.4-0.5-0.8-0.6-1.2c-0.2-0.5-0.3-1-0.3-1.5c0-3.3,3.5-5,10.5-5
		c2.2,0,4.3,0.2,6.4,0.6c1.9,0.3,3.6,1,5.2,2.1c1.5,1,2.7,2.3,3.5,3.9c0.9,1.9,1.3,3.9,1.3,6L264,219z M254.5,207.1
		c-0.5-0.1-1-0.2-1.6-0.2c-0.7-0.1-1.7-0.1-3.1-0.1c-1,0-1.9,0.1-2.9,0.3c-0.6,0.1-1.2,0.4-1.7,0.8c-0.4,0.3-0.7,0.7-0.9,1.1
		c-0.2,0.4-0.2,0.9-0.2,1.3c0,0.4,0.1,0.7,0.2,1.1c0.1,0.4,0.4,0.8,0.8,1c0.5,0.4,1.1,0.6,1.8,0.8c1,0.2,2.1,0.3,3.1,0.3
		c1,0,2,0,2.8-0.1c0.6,0,1.1-0.1,1.7-0.2L254.5,207.1z"/>
	<path id="Path_744" class="st4" d="M274.9,200.9c0-1.7,0.3-3.4,1-5c0.6-1.4,1.5-2.7,2.7-3.7c1.2-1,2.6-1.8,4.1-2.3
		c1.7-0.5,3.5-0.8,5.3-0.8c1.9-0.1,3.7,0.2,5.5,0.7c1,0.3,2,0.9,2.9,1.6c0.3,0.4,0.6,0.8,0.8,1.2c0.2,0.5,0.3,1,0.3,1.5
		c0,0.5-0.1,1.1-0.3,1.6c-0.2,0.5-0.4,0.9-0.6,1.3c-0.2,0.3-0.5,0.7-0.7,1c-0.2,0.3-0.4,0.5-0.5,0.6c-0.8-0.3-1.6-0.6-2.4-0.9
		c-1-0.3-2.1-0.4-3.1-0.4c-1.4,0-2.7,0.4-3.8,1.3c-1,0.8-1.6,2.2-1.6,4.2v16.3h-9.5L274.9,200.9z"/>
	<path id="Path_745" class="st4" d="M305.1,181.1c-0.1-1.2,0.4-2.4,1.4-3.1c1.1-0.7,2.3-1,3.6-0.9c1,0,1.9,0.1,2.9,0.4
		c0.9,0.2,1.4,0.4,1.7,0.5v21.8c0.7-0.6,1.5-1.2,2.3-1.8c0.8-0.6,1.6-1.3,2.4-1.9c0.8-0.6,1.5-1.2,2.2-1.8c0.7-0.6,1.2-1,1.7-1.4
		c0.6-0.5,1.1-0.9,1.6-1.3c0.4-0.4,0.9-0.7,1.4-0.9c0.5-0.2,1-0.4,1.6-0.5c0.7-0.1,1.3-0.2,2-0.2c0.7,0,1.5,0.1,2.2,0.3
		c0.6,0.2,1.2,0.5,1.8,0.8c0.5,0.3,0.9,0.6,1.3,1c0.3,0.3,0.5,0.6,0.8,0.9c-0.7,0.8-1.7,1.6-2.8,2.6c-1.1,0.9-2.3,1.9-3.5,2.8
		c-1.2,0.9-2.4,1.8-3.5,2.7c-1.1,0.9-2,1.6-2.7,2.1c2.6,2.3,5.1,4.8,7.4,7.4c2.4,2.7,4.7,5.5,6.7,8.4h-11.7c-0.8-1-1.7-2.1-2.6-3.2
		c-0.9-1.1-1.9-2.1-2.9-3.1c-1-1-1.9-1.9-2.9-2.8c-0.9-0.9-1.8-1.7-2.6-2.5v11.6h-9.5V181.1z"/>
	<path id="Path_746" class="st4" d="M345.3,181.7c0-1.2,0.5-2.4,1.4-3.3c0.9-0.9,2.1-1.4,3.4-1.3c1.3,0,2.5,0.5,3.4,1.3
		c0.9,0.9,1.4,2.1,1.4,3.3c0,1.2-0.5,2.4-1.4,3.3c-0.9,0.9-2.1,1.3-3.4,1.3c-1.3,0-2.5-0.4-3.4-1.3
		C345.7,184.1,345.2,182.9,345.3,181.7"/>
	<path id="Path_747" class="st4" d="M345.3,194.1c-0.1-1.2,0.4-2.4,1.4-3.1c1.1-0.7,2.3-1,3.6-0.9c1,0,1.9,0.1,2.9,0.4
		c0.9,0.2,1.4,0.4,1.7,0.5v28.3h-9.5L345.3,194.1z"/>
	<path id="Path_748" class="st4" d="M365.1,201.5c0-1.8,0.4-3.6,1.2-5.3c0.8-1.5,1.9-2.8,3.2-3.9c1.4-1.1,3.1-1.9,4.8-2.3
		c3.8-1.1,7.8-1.1,11.6,0c1.7,0.5,3.3,1.3,4.8,2.3c1.4,1,2.5,2.3,3.2,3.9c0.8,1.6,1.2,3.5,1.2,5.3v17.7h-9.5v-15.6
		c0.1-1.6-0.4-3.2-1.4-4.5c-1.1-1-2.6-1.6-4.1-1.5c-3.7,0-5.5,2-5.5,5.9v15.6h-9.5L365.1,201.5z"/>
	<path id="Path_749" class="st4" d="M410,222c0.3,0.2,0.6,0.3,0.9,0.4c0.5,0.2,1.2,0.4,2,0.6s1.7,0.4,2.8,0.6
		c1.2,0.2,2.3,0.3,3.5,0.3c1.2,0,2.4-0.1,3.5-0.4c1-0.2,2-0.7,2.8-1.3c0.8-0.6,1.4-1.5,1.8-2.4c0.5-1.2,0.7-2.4,0.6-3.6v-0.6
		c-0.3,0.3-0.6,0.6-1,0.8c-0.6,0.4-1.1,0.7-1.8,1c-0.8,0.4-1.7,0.7-2.6,0.9c-1.1,0.3-2.2,0.4-3.3,0.4c-2,0-4-0.3-5.9-0.9
		c-1.7-0.6-3.3-1.5-4.6-2.8c-1.3-1.3-2.3-2.8-3-4.5c-0.7-1.9-1.1-4-1.1-6c0-2.1,0.4-4.2,1.2-6.1c0.8-1.8,2-3.4,3.4-4.8
		c1.5-1.4,3.3-2.4,5.2-3.1c2.1-0.8,4.4-1.1,6.7-1.1c2.6,0,5.1,0.5,7.5,1.5c2.2,0.9,4.2,2.4,5.7,4.3c1,1.3,1.7,2.7,2.1,4.3
		c0.5,2,0.8,4.1,0.7,6.2v8.5c0.1,2.6-0.4,5.2-1.3,7.7c-0.8,2-2,3.8-3.6,5.3c-1.6,1.4-3.4,2.5-5.5,3.1c-2.2,0.7-4.5,1-6.9,1
		c-1.6,0-3.2-0.1-4.8-0.3c-1.3-0.2-2.6-0.4-3.9-0.7c-0.9-0.2-1.9-0.5-2.8-0.9c-0.5-0.2-1-0.4-1.4-0.7L410,222z M414.5,204.4
		c-0.1,1.8,0.6,3.6,1.9,4.9c1.4,1.1,3.1,1.7,4.8,1.6c1.8,0.1,3.5-0.6,4.8-1.8c1.3-1.2,2-2.9,1.9-4.7c0.1-1.8-0.6-3.5-1.9-4.8
		c-1.3-1.2-3-1.9-4.8-1.9c-0.9,0-1.9,0.2-2.7,0.5c-0.8,0.3-1.5,0.8-2.1,1.4c-0.6,0.6-1.1,1.3-1.4,2.1
		C414.7,202.6,414.5,203.5,414.5,204.4"/>
</g>
</svg>
