<?xml version="1.0" encoding="utf-8"?>
<!-- Generator: Adobe Illustrator 27.4.0, SVG Export Plug-In . SVG Version: 6.00 Build 0)  -->
<svg version="1.1" id="Layer_1" xmlns="http://www.w3.org/2000/svg" xmlns:xlink="http://www.w3.org/1999/xlink" x="0px" y="0px"
	 viewBox="0 0 21.5 19.3" style="enable-background:new 0 0 21.5 19.3;" xml:space="preserve">
<style type="text/css">
	.st0{fill:#FAC80B;}
</style>
<path class="st0" d="M21.2,15.9L12.7,1.2c-0.6-1.1-2-1.4-3.1-0.8C9.3,0.6,9,0.8,8.8,1.2L0.3,15.9C-0.3,17,0,18.4,1.1,19
	c0.3,0.2,0.7,0.3,1.1,0.3h17c1.2,0,2.2-1,2.2-2.2C21.5,16.6,21.4,16.3,21.2,15.9z M12.2,4.9l-0.1,2.2L11.8,13h-1.5L9.9,7.1L9.8,4.9
	H12.2z M11,17.3c-0.8,0-1.5-0.7-1.5-1.5s0.6-1.5,1.5-1.5c0.8,0,1.5,0.7,1.5,1.5S11.8,17.3,11,17.3z"/>
</svg>
