<?xml version="1.0" encoding="utf-8"?>
<!-- Generator: Adobe Illustrator 27.4.0, SVG Export Plug-In . SVG Version: 6.00 Build 0)  -->
<svg version="1.1" id="Layer_1" xmlns="http://www.w3.org/2000/svg" xmlns:xlink="http://www.w3.org/1999/xlink" x="0px" y="0px"
	 viewBox="0 0 22 22" style="enable-background:new 0 0 22 22;" xml:space="preserve">
<style type="text/css">
	.st0{fill:#FAC80B;}
</style>
<g>
	<path class="st0" d="M11.2,7H9.8v3.9h1.4c1.6,0,2.4-0.7,2.4-2C13.7,7.5,12.8,7,11.2,7z"/>
	<path class="st0" d="M17,0H5C2.2,0,0,2.2,0,5v12c0,2.8,2.2,5,5,5h12c2.8,0,5-2.2,5-5V5C22,2.2,19.8,0,17,0z M11.4,12.8H9.8V17H7.5
		V5.1h3.9C14,5.1,16,6,16,8.8C16,11.5,14,12.8,11.4,12.8z"/>
</g>
</svg>
