<?xml version="1.0" encoding="utf-8"?>
<!-- Generator: Adobe Illustrator 27.4.0, SVG Export Plug-In . SVG Version: 6.00 Build 0)  -->
<svg version="1.1" id="Layer_1" xmlns="http://www.w3.org/2000/svg" xmlns:xlink="http://www.w3.org/1999/xlink" x="0px" y="0px"
	 viewBox="0 0 30 30" style="enable-background:new 0 0 30 30;" xml:space="preserve">
<style type="text/css">
	.st0{fill:#FAC80B;}
</style>
<path class="st0" d="M15,0C6.7,0,0,6.7,0,15c0,8.3,6.7,15,15,15c8.3,0,15-6.7,15-15C30,6.7,23.3,0,15,0z M16.1,22.4v2.3h-2v-2.2
	c-1.4-0.2-2.9-0.8-4-1.7l1.3-2c1.1,0.9,2.2,1.4,3.3,1.4c1.4,0,2-0.6,2-1.8c0-2.7-6.1-2.5-6.1-6.6c0-2.2,1.3-3.7,3.4-4.1V5.3h2v2.3
	c1.4,0.2,2.5,0.9,3.3,1.8L18,11.1c-0.8-0.8-1.5-1.2-2.6-1.2c-1.2,0-1.8,0.6-1.8,1.7c0,2.5,6.1,2.1,6.1,6.6
	C19.6,20.3,18.4,21.9,16.1,22.4z"/>
</svg>
