<?xml version="1.0" encoding="utf-8"?>
<!-- Generator: Adobe Illustrator 27.4.0, SVG Export Plug-In . SVG Version: 6.00 Build 0)  -->
<svg version="1.1" id="Layer_1" xmlns="http://www.w3.org/2000/svg" xmlns:xlink="http://www.w3.org/1999/xlink" x="0px" y="0px"
	 viewBox="0 0 43 30" style="enable-background:new 0 0 43 30;" xml:space="preserve">
<style type="text/css">
	.st0{fill:#FAC80B;}
</style>
<path id="Path_702" class="st0" d="M40.1,13.5H39l-1.7-8.7c-0.5-2.6-2.8-4.5-5.4-4.5H11.1c-2.6,0-4.9,1.9-5.4,4.5L4,13.5H2.9
	C2.4,13.5,2,14,2,14.5c0,0,0,0,0,0v10.2c0,0.5,0.4,0.9,0.9,0.9c0,0,0,0,0,0H4v3.3c0,0.4,0.3,0.8,0.8,0.8h5.6c0.4,0,0.8-0.3,0.8-0.8
	v-3.3h20.8v3.3c0,0.4,0.3,0.8,0.8,0.8l0,0h5.6c0.4,0,0.8-0.3,0.8-0.8v-3.3h1.1c0.5,0,0.9-0.4,0.9-0.9l0,0V14.5
	C41,14,40.6,13.5,40.1,13.5C40.1,13.5,40.1,13.5,40.1,13.5z M7.1,23.2c-1.4,0-2.5-1.1-2.5-2.5s1.1-2.5,2.5-2.5c0,0,0,0,0,0
	c1.4,0,2.5,1.1,2.5,2.5c0,0,0,0,0,0C9.6,22,8.5,23.2,7.1,23.2L7.1,23.2z M7.9,13.1l1.5-8c0.2-0.8,0.9-1.4,1.7-1.4h20.8
	c0.8,0,1.6,0.6,1.7,1.4l1.5,8H7.9z M35.9,23.2c-1.4,0-2.5-1.1-2.5-2.5l0,0c0-1.4,1.1-2.5,2.5-2.5c0,0,0,0,0,0c1.4,0,2.5,1.1,2.5,2.5
	c0,0,0,0,0,0C38.4,22,37.2,23.2,35.9,23.2L35.9,23.2z"/>
</svg>
